<?xml version="1.0" ?><!-- Uploaded to: SVG Repo, www.svgrepo.com, Generator: SVG Repo Mixer Tools -->
<svg fill="#000000" width="800px" height="800px" viewBox="0 0 24 24" id="Main" xmlns="http://www.w3.org/2000/svg"><title/><path d="M8,20h5a1,1,0,0,0,1-1V11h4a1,1,0,0,0,.68-1.73l-7.5-7a1,1,0,0,0-1.36,0l-7.5,7A1,1,0,0,0,3,11H7v8A1,1,0,0,0,8,20ZM5.54,9l5-4.63,5,4.63H13a1,1,0,0,0-1,1v8H9V10A1,1,0,0,0,8,9Z"/><path d="M18.49,15H21a1,1,0,0,0,0-2H20a1,1,0,0,0-2,0v.05A2.5,2.5,0,0,0,18.49,18h1a.5.5,0,0,1,0,1H17a1,1,0,0,0,0,2h1a1,1,0,0,0,2,0V21A2.5,2.5,0,0,0,19.51,16h-1a.5.5,0,0,1,0-1Z"/></svg>