<?xml version="1.0" encoding="iso-8859-1"?>
<!-- Uploaded to: SVG Repo, www.svgrepo.com, Generator: SVG Repo Mixer Tools -->
<svg fill="#000000" version="1.1" id="Layer_1" xmlns="http://www.w3.org/2000/svg" xmlns:xlink="http://www.w3.org/1999/xlink" 
	 viewBox="0 0 512 512" xml:space="preserve">
<g>
	<g>
		<path d="M256,0C114.842,0,0,114.842,0,256s114.842,256,256,256s256-114.842,256-256S397.158,0,256,0z M256,472.615
			c-119.442,0-216.615-97.174-216.615-216.615S136.558,39.385,256,39.385S472.615,136.558,472.615,256S375.442,472.615,256,472.615z
			"/>
	</g>
</g>
<g>
	<g>
		<rect x="236.308" y="78.769" width="39.385" height="39.385"/>
	</g>
</g>
<g>
	<g>
		<rect x="78.769" y="236.308" width="39.385" height="39.385"/>
	</g>
</g>
<g>
	<g>
		<rect x="236.308" y="393.846" width="39.385" height="39.385"/>
	</g>
</g>
<g>
	<g>
		<rect x="393.846" y="236.308" width="39.385" height="39.385"/>
	</g>
</g>
<g>
	<g>
		<polygon points="236.308,177.231 236.308,259.904 164.624,319.642 189.838,349.897 275.692,278.351 275.692,177.231 		"/>
	</g>
</g>
</svg>