<?xml version="1.0" encoding="utf-8"?>

<!-- Uploaded to: SVG Repo, www.svgrepo.com, Generator: SVG Repo Mixer Tools -->
<svg version="1.1" id="Icons" xmlns="http://www.w3.org/2000/svg" xmlns:xlink="http://www.w3.org/1999/xlink" 
	 viewBox="0 0 32 32" xml:space="preserve">
<style type="text/css">
	.st0{fill:none;stroke:#000000;stroke-width:2;stroke-linecap:round;stroke-linejoin:round;stroke-miterlimit:10;}
</style>
<path class="st0" d="M21,31H11c-1.1,0-2-0.9-2-2V3c0-1.1,0.9-2,2-2h10c1.1,0,2,0.9,2,2v26C23,30.1,22.1,31,21,31z"/>
<line class="st0" x1="16" y1="22" x2="16" y2="21"/>
<line class="st0" x1="16" y1="27" x2="16" y2="26"/>
<line class="st0" x1="14" y1="24" x2="13" y2="24"/>
<line class="st0" x1="19" y1="24" x2="18" y2="24"/>
<line class="st0" x1="14" y1="17" x2="13" y2="17"/>
<line class="st0" x1="19" y1="17" x2="18" y2="17"/>
<circle cx="13" cy="8" r="1"/>
<circle cx="13" cy="5" r="1"/>
<circle cx="16" cy="8" r="1"/>
<circle cx="19" cy="8" r="1"/>
<circle cx="13" cy="11" r="1"/>
<circle cx="16" cy="11" r="1"/>
<circle cx="19" cy="11" r="1"/>
<circle cx="13" cy="14" r="1"/>
<circle cx="16" cy="14" r="1"/>
<circle cx="19" cy="14" r="1"/>
</svg>